# xmcd CD database file
#
# Track frame offsets:
#	150
#	28146
#	51346
#	68179
#	89188
#	111401
#	138134
#	154984
#	184546
#	210311
#	235584
#	249900
#
# Disc length: 3635 seconds
#
# Revision: 0
# Processed by: cddbd v1.5.2PL0 Copyright (c) Steve Scherf et al.
# Submitted via: CDex 1.70beta2
#
DISCID=a40e310c
DTITLE=Swinger Club - Jazz Sells
DYEAR=2007
DGENRE=Jazz
TTITLE0=Beautiful
TTITLE1=Take on me
TTITLE2=Verdamp lang her
TTITLE3=Call me
TTITLE4=Tausend Tränen tief
TTITLE5=Wind of change
TTITLE6=Beautiful day
TTITLE7=Oxygene
TTITLE8=Video killed the radiostar
TTITLE9=Sing it back
TTITLE10=Material girl
TTITLE11=Hurra, hurra, die Schule brennt
EXTD=YEAR: 2007
EXTT0=
EXTT1=
EXTT2=
EXTT3=
EXTT4=
EXTT5=
EXTT6=
EXTT7=
EXTT8=
EXTT9=
EXTT10=
EXTT11=
PLAYORDER=
